<!-- icon666.com - MILLIONS OF FREE VECTOR ICONS --><svg version="1.1" id="Capa_1" xmlns="http://www.w3.org/2000/svg" xmlns:xlink="http://www.w3.org/1999/xlink" x="0px" y="0px" viewBox="0 0 254.156 254.156" style="enable-background:new 0 0 254.156 254.156;" xml:space="preserve"><g><path d="M68.207,38.413c-1.84,0.746-1.766,3.063-0.446,3.82c-0.676,0.994-0.916,2.277-0.159,3.638 c8.766,15.754,12.611,30.112,12.572,47.215C58.881,74.243,33.383,65.612,4.297,67.865c-2.594,0.202-4.689,2.962-3.123,5.443 c20.149,31.913,19.841,69.325-0.619,100.906c-1.619,2.5,0.575,5.195,3.122,5.44c27.657,2.661,51.852-6.495,69.993-26.152 c-0.232,22.987-5.432,43.924-14.421,65.496c-0.153,0.367-0.194,0.717-0.165,1.047c-0.104,1.59,0.855,3.394,2.881,3.655 c12.139,1.569,26.947,2.127,42.881,1.39c1.135,0.559,2.544,0.547,3.647-0.193c17.415-1.015,36.024-3.614,53.926-8.162 c1.156,0.71,2.622,0.749,3.736-0.583c0.138-0.165,0.248-0.331,0.385-0.496c47.386-12.936,88.665-40.07,87.599-89.107 C252.243,39.482,134.005,11.729,68.207,38.413z M85.338,218.83c-6.965-0.113-13.607-0.436-19.737-0.945 c11.25-23.428,15.463-47.457,14.775-73.556c-0.07-2.685-3.898-4.893-5.854-2.424c-7.219,9.116-54.461,47.165-63.067,28.773 c-0.189-0.405,1.093-3.793,2.785-7.937c7.262-3.747,15.096-6.226,22.092-10.549c6.869-4.245,12.893-9.524,17.85-15.9 c1.303-1.675-0.856-4.044-2.407-2.407c-5.909,6.236-12.183,11.971-19.566,16.433c-5.142,3.107-10.837,5.183-16.124,7.976 c2.431-5.789,4.939-11.564,5.104-12.251c1.174-4.874,1.872-9.823,2.24-14.802c8.421-0.586,17.299-2.159,24.431-6.653 c1.405-0.886,0.526-3.248-1.158-2.748c-7.82,2.322-15.09,5.1-23.087,6.467c0.068-1.482,0.128-2.966,0.137-4.452 c0.036-6.108-0.45-12.192-1.528-18.198c7.9-0.388,14.498,0.64,22.109,3.372c2.256,0.81,3.504-2.569,1.585-3.759 c-6.943-4.302-16.488-5.574-24.447-3.477c-0.011-0.051-0.018-0.102-0.03-0.152c-1.269-5.549-7.757-15.382-7.551-20.921 c0.418-11.236,11.263-6.78,24.282-3.277c17.013,4.578,30.546,13.768,42.791,26.179c2.318,2.349,5.973,0.471,6.174-2.557 c1.433-21.586-2.762-39.926-13.29-58.845c-0.17-0.306-0.398-0.487-0.608-0.709c1.078-0.256,2.155-0.449,3.233-0.693 c0.041,0.562,0.212,1.141,0.666,1.687C118.307,92.034,119.198,165.795,85.338,218.83z M145.886,213.986 c-8.352,1.534-16.768,2.712-25.074,3.489c32.082-49.932,34.307-143.245-18.569-181.083c9.546-1.121,19.076-1.551,28.592-1.182 c0.107,0.205,0.167,0.415,0.327,0.61C171.733,85.194,171.739,158.85,145.886,213.986z M172.474,207.483 c4.313-6.73,7.246-13.674,8.864-21.193c0.728-1.472,1.434-2.984,2.116-4.536c-2.385,8.529-5.594,17.025-9.953,25.432 C173.164,207.292,172.813,207.376,172.474,207.483z M180.407,204.827c33.808-49.895,8.904-120.13-22.817-166.2 c5.275,1.165,10.546,2.606,15.81,4.438c39.864,13.868,81.865,49.944,72.325,96.81C238.992,172.954,212.644,193.134,180.407,204.827 z"></path><path d="M216.916,105.163c-4.78-0.075-8.893,3.082-10.981,7.251c-2.559,5.11-1.691,11.073-0.374,16.392 c0.683,2.758,5.345,2.263,5.07-0.686c-0.416-4.463-1.543-17.016,6.355-16.017c7.753,0.98,4.655,11.856,6.007,16.58 c0.683,2.386,4.499,3.258,5.677,0.742C232.689,120.849,227.981,105.337,216.916,105.163z"></path></g></svg>