<!-- icon666.com - MILLIONS OF FREE VECTOR ICONS --><svg version="1.1" id="Capa_1" xmlns="http://www.w3.org/2000/svg" xmlns:xlink="http://www.w3.org/1999/xlink" x="0px" y="0px" viewBox="0 0 430.47 430.47" style="enable-background:new 0 0 430.47 430.47;" xml:space="preserve"><g><g><path d="M86.026,167.328c-7.716,0-14.003,6.263-14.003,14.003c0,7.743,6.287,14.002,14.003,14.002 c7.767,0,14.027-6.259,14.027-14.002C100.053,173.591,93.793,167.328,86.026,167.328z" fill="#000000" style="fill: rgb(38, 45, 151);"></path><path d="M412.332,257.873c0-13.215-2.102-24.902-7.956-32.777c6.232-7.876,8.45-19.827,8.45-33.433l12.887-65.851 c0-23.729,15.139-42.966-8.591-42.966h-20.04c-23.728,0-42.956,19.237-42.956,42.966l-20.082,38.518 c-11.271-11.25-26.582-21.103-44.985-30.438c0.04-0.224,0.061-0.424,0.106-0.648c-23.935-0.812-13.989-8.227,1.092-7.961 c5.757-37.024,18.662-67.137-23.956-60.614c-36.756,5.62-102.043,22.46-136.494,48.575C89.383,120.337,0,166.879,0,212.114 c0,3.666,51.208,74.187,122.067,88.878c28.465,32.399,106.87,53.21,148.557,59.573c47.213,7.24,26.319-30.495,22.473-72.744 c-22.717,7.707-12.504-4.158,1.265-8.854c10.348-5.576,19.68-10.632,27.693-15.76l31.59,60.545 c0,23.714,19.234,42.942,42.967,42.942h20.038c23.729,0,8.593-19.229,8.593-42.942L412.332,257.873z M83.035,202.814 c-11.853,0-21.483-9.606-21.483-21.483c0-11.853,9.63-21.478,21.483-21.478c11.867,0,21.479,9.625,21.479,21.478 C104.514,193.208,94.902,202.814,83.035,202.814z" fill="#000000" style="fill: rgb(38, 45, 151);"></path></g></g></svg>