<!-- icon666.com - MILLIONS OF FREE VECTOR ICONS --><svg version="1.1" id="Layer_1" xmlns="http://www.w3.org/2000/svg" xmlns:xlink="http://www.w3.org/1999/xlink" x="0px" y="0px" viewBox="0 0 512 512" style="enable-background:new 0 0 512 512;" xml:space="preserve"><g><circle style="fill:#61ACD2;" cx="283.101" cy="130.98" r="21.559"></circle><circle style="fill:#61ACD2;" cx="339.589" cy="30.518" r="21.559"></circle></g><g><path style="fill:#6ABE71;" d="M329.27,413.187c-4.95,0-8.963-4.013-8.963-8.963c0-21.793-7.515-32.15-16.217-44.141 c-9.204-12.682-19.634-27.058-19.634-54.67s10.432-41.988,19.634-54.671c8.702-11.992,16.217-22.349,16.217-44.143 c0-4.95,4.013-8.963,8.963-8.963s8.963,4.013,8.963,8.963c0,27.612-10.432,41.988-19.634,54.671 c-8.702,11.992-16.217,22.349-16.217,44.143c0,21.794,7.515,32.151,16.217,44.142c9.204,12.682,19.634,27.056,19.634,54.669 C338.233,409.175,334.219,413.187,329.27,413.187z"></path><path style="fill:#6ABE71;" d="M219.793,413.187c-4.95,0-8.963-4.013-8.963-8.963c0-21.793-7.515-32.15-16.217-44.141 c-9.204-12.682-19.634-27.058-19.634-54.67s10.432-41.988,19.634-54.671c8.702-11.992,16.217-22.349,16.217-44.143 c0-21.795-7.515-32.153-16.217-44.145c-9.203-12.683-19.634-27.059-19.634-54.673c0-4.95,4.013-8.963,8.963-8.963 s8.963,4.013,8.963,8.963c0,21.795,7.515,32.153,16.217,44.145c9.203,12.683,19.634,27.059,19.634,54.673 c0,27.612-10.432,41.988-19.634,54.671c-8.702,11.992-16.217,22.349-16.217,44.143c0,21.794,7.515,32.151,16.217,44.142 c9.203,12.682,19.634,27.058,19.634,54.67C228.755,409.175,224.742,413.187,219.793,413.187z"></path><path style="fill:#6ABE71;" d="M102.094,413.187c-4.95,0-8.963-4.013-8.963-8.963c0-21.793-7.515-32.15-16.217-44.141 c-9.204-12.682-19.634-27.058-19.634-54.67s10.432-41.988,19.634-54.671c8.702-11.992,16.217-22.349,16.217-44.143 c0-21.795-7.515-32.153-16.217-44.145c-9.203-12.683-19.634-27.059-19.634-54.673s10.432-41.99,19.634-54.673 c8.702-11.993,16.217-22.351,16.217-44.146c0-4.95,4.013-8.963,8.963-8.963s8.963,4.013,8.963,8.963 c0,27.613-10.432,41.99-19.634,54.673c-8.702,11.993-16.217,22.35-16.217,44.145s7.515,32.153,16.217,44.145 c9.203,12.683,19.634,27.059,19.634,54.673c0,27.612-10.432,41.988-19.634,54.671c-8.702,11.992-16.217,22.349-16.217,44.143 c0,21.794,7.515,32.151,16.217,44.142c9.203,12.682,19.634,27.056,19.634,54.669C111.057,409.175,107.045,413.187,102.094,413.187z "></path><path style="fill:#6ABE71;" d="M342.258,512h-135.91c-25.655,0-53.648-12.68-76.802-34.788 c-22.801-21.773-36.415-49.058-36.415-72.986c0-4.95,4.013-8.963,8.963-8.963s8.963,4.013,8.963,8.963 c0,41.146,51.653,89.85,95.291,89.85h135.911c4.95,0,8.963,4.013,8.963,8.963S347.208,512,342.258,512z"></path><path style="fill:#6ABE71;" d="M446.512,413.187c-4.95,0-8.963-4.013-8.963-8.963c0-21.793-7.515-32.15-16.217-44.141 c-9.204-12.682-19.634-27.058-19.634-54.67s10.432-41.988,19.634-54.671c8.702-11.992,16.217-22.349,16.217-44.143 c0-21.795-7.515-32.153-16.217-44.145c-9.204-12.683-19.634-27.059-19.634-54.673s10.432-41.99,19.634-54.673 c8.702-11.993,16.217-22.351,16.217-44.146c0-4.95,4.013-8.963,8.963-8.963s8.963,4.013,8.963,8.963 c0,27.613-10.432,41.99-19.634,54.673c-8.702,11.993-16.217,22.35-16.217,44.145s7.515,32.153,16.217,44.145 c9.204,12.683,19.634,27.059,19.634,54.673c0,27.612-10.432,41.988-19.634,54.671c-8.702,11.992-16.217,22.349-16.217,44.143 c0,21.794,7.515,32.151,16.217,44.142c9.204,12.682,19.634,27.056,19.634,54.669C455.475,409.175,451.462,413.187,446.512,413.187z "></path><path style="fill:#6ABE71;" d="M342.258,512c-4.95,0-8.963-4.013-8.963-8.963s4.013-8.963,8.963-8.963 c43.638,0,95.291-48.704,95.291-89.85c0-4.95,4.013-8.963,8.963-8.963s8.963,4.013,8.963,8.963 c0,23.928-13.612,51.213-36.415,72.986C395.906,499.32,367.914,512,342.258,512z"></path><path style="fill:#6ABE71;" d="M274.531,512c-4.95,0-8.963-4.013-8.963-8.963s4.013-8.963,8.963-8.963 c28.447,0,45.429-33.162,45.429-88.709c0-4.95,4.013-8.963,8.963-8.963s8.963,4.013,8.963,8.963 c0,37.717-6.981,66.095-20.75,84.349C302.508,509.105,284.163,512,274.531,512z"></path><path style="fill:#6ABE71;" d="M274.531,512c-9.633,0-27.976-2.895-42.604-22.286c-13.769-18.254-20.75-46.632-20.75-84.349 c0-4.95,4.013-8.963,8.963-8.963s8.963,4.013,8.963,8.963c0,55.547,16.982,88.709,45.429,88.709c4.95,0,8.963,4.013,8.963,8.963 S279.48,512,274.531,512z"></path></g><g><path style="fill:#3B804B;" d="M138.932,414.53H65.257c-4.95,0-8.963-4.013-8.963-8.963s4.013-8.963,8.963-8.963h73.675 c4.95,0,8.963,4.013,8.963,8.963S143.883,414.53,138.932,414.53z"></path><path style="fill:#3B804B;" d="M103.836,314.372H28.651c-4.95,0-8.963-4.013-8.963-8.963s4.013-8.963,8.963-8.963h75.186 c4.95,0,8.963,4.013,8.963,8.963S108.786,314.372,103.836,314.372z"></path><path style="fill:#3B804B;" d="M141.198,215.55H62.992c-4.95,0-8.963-4.013-8.963-8.963s4.013-8.963,8.963-8.963h78.205 c4.95,0,8.963,4.013,8.963,8.963S146.147,215.55,141.198,215.55z"></path><path style="fill:#3B804B;" d="M106.101,116.744H26.386c-4.95,0-8.963-4.013-8.963-8.963s4.013-8.963,8.963-8.963h79.715 c4.95,0,8.963,4.013,8.963,8.963S111.051,116.744,106.101,116.744z"></path><path style="fill:#3B804B;" d="M366.108,414.53h-73.675c-4.95,0-8.963-4.013-8.963-8.963s4.013-8.963,8.963-8.963h73.675 c4.95,0,8.963,4.013,8.963,8.963S371.058,414.53,366.108,414.53z"></path><path style="fill:#3B804B;" d="M331.011,314.372h-75.186c-4.95,0-8.963-4.013-8.963-8.963s4.013-8.963,8.963-8.963h75.186 c4.95,0,8.963,4.013,8.963,8.963S335.961,314.372,331.011,314.372z"></path><path style="fill:#3B804B;" d="M256.63,414.53h-73.675c-4.95,0-8.963-4.013-8.963-8.963s4.013-8.963,8.963-8.963h73.675 c4.95,0,8.963,4.013,8.963,8.963S261.58,414.53,256.63,414.53z"></path><path style="fill:#3B804B;" d="M221.534,314.372h-75.186c-4.95,0-8.963-4.013-8.963-8.963s4.013-8.963,8.963-8.963h75.186 c4.95,0,8.963,4.013,8.963,8.963S226.484,314.372,221.534,314.372z"></path><path style="fill:#3B804B;" d="M258.894,215.55H180.69c-4.95,0-8.963-4.013-8.963-8.963s4.013-8.963,8.963-8.963h78.205 c4.95,0,8.963,4.013,8.963,8.963S263.844,215.55,258.894,215.55z"></path><path style="fill:#3B804B;" d="M483.35,414.53h-73.676c-4.95,0-8.963-4.013-8.963-8.963s4.013-8.963,8.963-8.963h73.676 c4.95,0,8.963,4.013,8.963,8.963S488.3,414.53,483.35,414.53z"></path><path style="fill:#3B804B;" d="M448.253,314.372h-75.184c-4.95,0-8.963-4.013-8.963-8.963s4.013-8.963,8.963-8.963h75.184 c4.95,0,8.963,4.013,8.963,8.963S453.203,314.372,448.253,314.372z"></path><path style="fill:#3B804B;" d="M485.614,215.55h-78.205c-4.95,0-8.963-4.013-8.963-8.963s4.013-8.963,8.963-8.963h78.205 c4.95,0,8.963,4.013,8.963,8.963S490.563,215.55,485.614,215.55z"></path><path style="fill:#3B804B;" d="M481.085,414.53h-73.676c-4.95,0-8.963-4.013-8.963-8.963s4.013-8.963,8.963-8.963h73.676 c4.95,0,8.963,4.013,8.963,8.963S486.035,414.53,481.085,414.53z"></path><path style="fill:#3B804B;" d="M445.989,314.372h-75.186c-4.95,0-8.963-4.013-8.963-8.963s4.013-8.963,8.963-8.963h75.186 c4.95,0,8.963,4.013,8.963,8.963S450.939,314.372,445.989,314.372z"></path></g></svg>